<mxfile host="app.diagrams.net" agent="Mozilla/5.0 (Windows NT 10.0; Win64; x64) AppleWebKit/537.36 (KHTML, like Gecko) Chrome/132.0.0.0 Safari/537.36" version="26.0.13">
  <diagram name="Page-1" id="EEWq-LYywZsjr-8HUKzn">
    <mxGraphModel dx="1050" dy="530" grid="1" gridSize="10" guides="1" tooltips="1" connect="1" arrows="1" fold="1" page="1" pageScale="1" pageWidth="827" pageHeight="1169" background="none" math="0" shadow="0">
      <root>
        <mxCell id="0" />
        <mxCell id="1" parent="0" />
        <mxCell id="HrDyO8nvaBUC3kqXnFug-1" value="" style="rounded=1;whiteSpace=wrap;html=1;fillColor=#f9f7ed;strokeColor=#36393d;fontStyle=1" parent="1" vertex="1">
          <mxGeometry x="100" y="10" width="640" height="560" as="geometry" />
        </mxCell>
        <mxCell id="lXcPuruQBqpot0zOTHIt-2" value="Employé" style="shape=umlActor;verticalLabelPosition=bottom;verticalAlign=top;html=1;outlineConnect=0;fillColor=#f9f7ed;strokeColor=#36393D;fontStyle=1;gradientColor=default;" parent="1" vertex="1">
          <mxGeometry x="40" y="40" width="30" height="60" as="geometry" />
        </mxCell>
        <mxCell id="lXcPuruQBqpot0zOTHIt-3" value="&lt;div&gt;Commerçant&lt;/div&gt;" style="shape=umlActor;verticalLabelPosition=bottom;verticalAlign=top;html=1;outlineConnect=0;fillColor=#f9f7ed;strokeColor=#36393d;fontStyle=1;gradientColor=default;" parent="1" vertex="1">
          <mxGeometry x="40" y="170" width="30" height="60" as="geometry" />
        </mxCell>
        <mxCell id="f-XQC71uX94ksuNOsDdL-1" value="&lt;div&gt;&lt;span&gt;Effectuer un&amp;nbsp;&lt;/span&gt;&lt;/div&gt;&lt;div&gt;&lt;span&gt;paiement &lt;/span&gt;&lt;/div&gt;" style="ellipse;whiteSpace=wrap;html=1;fontStyle=1" parent="1" vertex="1">
          <mxGeometry x="208.75" y="110" width="142.5" height="40" as="geometry" />
        </mxCell>
        <mxCell id="f-XQC71uX94ksuNOsDdL-3" value="S&#39;authentifier" style="ellipse;whiteSpace=wrap;html=1;fontStyle=1" parent="1" vertex="1">
          <mxGeometry x="430" y="225" width="79" height="35" as="geometry" />
        </mxCell>
        <mxCell id="f-XQC71uX94ksuNOsDdL-5" value="Employeur" style="shape=umlActor;verticalLabelPosition=bottom;verticalAlign=top;html=1;fillColor=#f9f7ed;strokeColor=#36393d;fontStyle=1;gradientColor=default;" parent="1" vertex="1">
          <mxGeometry x="40" y="275" width="30" height="60" as="geometry" />
        </mxCell>
        <mxCell id="f-XQC71uX94ksuNOsDdL-6" value="Administrateur" style="shape=umlActor;verticalLabelPosition=bottom;verticalAlign=top;html=1;outlineConnect=0;fillColor=#f9f7ed;strokeColor=#36393d;fontStyle=1;gradientColor=default;" parent="1" vertex="1">
          <mxGeometry x="40" y="403" width="30" height="60" as="geometry" />
        </mxCell>
        <mxCell id="f-XQC71uX94ksuNOsDdL-7" value="&lt;span&gt;Consulter le solde&lt;/span&gt;" style="ellipse;whiteSpace=wrap;html=1;fontStyle=1" parent="1" vertex="1">
          <mxGeometry x="199.69" y="60" width="151.87" height="40" as="geometry" />
        </mxCell>
        <mxCell id="f-XQC71uX94ksuNOsDdL-8" value="" style="endArrow=none;dashed=1;html=1;dashPattern=1 3;strokeWidth=2;rounded=0;exitX=1;exitY=0.5;exitDx=0;exitDy=0;fontStyle=1" parent="1" source="f-XQC71uX94ksuNOsDdL-1" target="f-XQC71uX94ksuNOsDdL-3" edge="1">
          <mxGeometry width="50" height="50" relative="1" as="geometry">
            <mxPoint x="429" y="330" as="sourcePoint" />
            <mxPoint x="479" y="280" as="targetPoint" />
            <Array as="points" />
          </mxGeometry>
        </mxCell>
        <mxCell id="f-XQC71uX94ksuNOsDdL-14" value="Include" style="edgeLabel;html=1;align=center;verticalAlign=middle;resizable=0;points=[];fontStyle=0;fontSize=9;" parent="f-XQC71uX94ksuNOsDdL-8" vertex="1" connectable="0">
          <mxGeometry x="-0.049" y="1" relative="1" as="geometry">
            <mxPoint x="-5" y="6" as="offset" />
          </mxGeometry>
        </mxCell>
        <mxCell id="f-XQC71uX94ksuNOsDdL-10" value="" style="endArrow=none;dashed=1;html=1;dashPattern=1 3;strokeWidth=2;rounded=0;entryX=0.5;entryY=0;entryDx=0;entryDy=0;fontStyle=1;fontColor=#FFFF99;labelBorderColor=light-dark(#00ffff, #ededed);" parent="1" target="f-XQC71uX94ksuNOsDdL-3" edge="1">
          <mxGeometry width="50" height="50" relative="1" as="geometry">
            <mxPoint x="350" y="80" as="sourcePoint" />
            <mxPoint x="189.99640687119296" y="269.99572875253784" as="targetPoint" />
          </mxGeometry>
        </mxCell>
        <mxCell id="f-XQC71uX94ksuNOsDdL-13" value="Include" style="edgeLabel;html=1;align=center;verticalAlign=middle;resizable=0;points=[];fontStyle=0;fontSize=8;" parent="f-XQC71uX94ksuNOsDdL-10" vertex="1" connectable="0">
          <mxGeometry x="0.0071" relative="1" as="geometry">
            <mxPoint x="-6" y="-10" as="offset" />
          </mxGeometry>
        </mxCell>
        <mxCell id="f-XQC71uX94ksuNOsDdL-11" value="" style="endArrow=none;dashed=1;html=1;dashPattern=1 3;strokeWidth=2;rounded=0;exitX=0;exitY=1;exitDx=0;exitDy=0;entryX=1;entryY=0;entryDx=0;entryDy=0;fontStyle=1" parent="1" source="f-XQC71uX94ksuNOsDdL-3" target="f-XQC71uX94ksuNOsDdL-4" edge="1">
          <mxGeometry width="50" height="50" relative="1" as="geometry">
            <mxPoint x="439" y="340" as="sourcePoint" />
            <mxPoint x="469" y="322" as="targetPoint" />
          </mxGeometry>
        </mxCell>
        <mxCell id="hkSApEl5P2nhrFZefOpm-12" value="&lt;font style=&quot;font-size: 8px;&quot;&gt;Include&lt;/font&gt;" style="edgeLabel;html=1;align=center;verticalAlign=middle;resizable=0;points=[];" parent="f-XQC71uX94ksuNOsDdL-11" vertex="1" connectable="0">
          <mxGeometry x="0.1787" relative="1" as="geometry">
            <mxPoint as="offset" />
          </mxGeometry>
        </mxCell>
        <mxCell id="f-XQC71uX94ksuNOsDdL-19" value="&lt;div&gt;Service&lt;/div&gt;&lt;div&gt;Compensation&amp;nbsp;&lt;/div&gt;&lt;div&gt;de la banque&lt;/div&gt;" style="shape=umlActor;verticalLabelPosition=bottom;verticalAlign=top;html=1;outlineConnect=0;fillColor=#F9F7ED;strokeColor=#36393d;fontStyle=1;strokeWidth=1;gradientColor=default;" parent="1" vertex="1">
          <mxGeometry x="770" y="70" width="30" height="60" as="geometry" />
        </mxCell>
        <mxCell id="f-XQC71uX94ksuNOsDdL-20" value="" style="endArrow=none;dashed=1;html=1;rounded=0;exitX=1;exitY=0.5;exitDx=0;exitDy=0;fontStyle=1" parent="1" source="f-XQC71uX94ksuNOsDdL-7" target="f-XQC71uX94ksuNOsDdL-21" edge="1">
          <mxGeometry width="50" height="50" relative="1" as="geometry">
            <mxPoint x="390" y="320" as="sourcePoint" />
            <mxPoint x="440" y="270" as="targetPoint" />
          </mxGeometry>
        </mxCell>
        <mxCell id="f-XQC71uX94ksuNOsDdL-23" value="Extend" style="edgeLabel;html=1;align=center;verticalAlign=middle;resizable=0;points=[];fontStyle=1" parent="f-XQC71uX94ksuNOsDdL-20" vertex="1" connectable="0">
          <mxGeometry x="0.0028" relative="1" as="geometry">
            <mxPoint x="17" as="offset" />
          </mxGeometry>
        </mxCell>
        <mxCell id="f-XQC71uX94ksuNOsDdL-21" value="Consulter l&#39;historique de solde" style="ellipse;whiteSpace=wrap;html=1;fontStyle=1" parent="1" vertex="1">
          <mxGeometry x="525" y="60" width="135" height="50" as="geometry" />
        </mxCell>
        <mxCell id="f-XQC71uX94ksuNOsDdL-25" value="Créer une carte " style="ellipse;whiteSpace=wrap;html=1;fontStyle=1" parent="1" vertex="1">
          <mxGeometry x="530" y="250" width="120" height="40" as="geometry" />
        </mxCell>
        <mxCell id="f-XQC71uX94ksuNOsDdL-26" value="" style="shape=flexArrow;endArrow=classic;html=1;rounded=0;width=2;endSize=5.14;endWidth=6;entryX=0.965;entryY=0.29;entryDx=0;entryDy=0;fontStyle=1;entryPerimeter=0;exitX=0;exitY=0.5;exitDx=0;exitDy=0;" parent="1" source="f-XQC71uX94ksuNOsDdL-25" target="f-XQC71uX94ksuNOsDdL-4" edge="1">
          <mxGeometry width="50" height="50" relative="1" as="geometry">
            <mxPoint x="522.66" y="400" as="sourcePoint" />
            <mxPoint x="430" y="470" as="targetPoint" />
            <Array as="points" />
          </mxGeometry>
        </mxCell>
        <mxCell id="f-XQC71uX94ksuNOsDdL-27" value="Supprimer une carte" style="ellipse;whiteSpace=wrap;html=1;fontStyle=1" parent="1" vertex="1">
          <mxGeometry x="535" y="305" width="120" height="40" as="geometry" />
        </mxCell>
        <mxCell id="f-XQC71uX94ksuNOsDdL-28" value="Ajouter une carte" style="ellipse;whiteSpace=wrap;html=1;fontStyle=1" parent="1" vertex="1">
          <mxGeometry x="540" y="350" width="120" height="40" as="geometry" />
        </mxCell>
        <mxCell id="f-XQC71uX94ksuNOsDdL-29" value="" style="shape=flexArrow;endArrow=classic;html=1;rounded=0;width=2;endSize=5.46;exitX=0;exitY=0.5;exitDx=0;exitDy=0;endWidth=7;fontStyle=1;entryX=1;entryY=0.5;entryDx=0;entryDy=0;" parent="1" source="f-XQC71uX94ksuNOsDdL-27" target="f-XQC71uX94ksuNOsDdL-4" edge="1">
          <mxGeometry width="50" height="50" relative="1" as="geometry">
            <mxPoint x="530" y="325" as="sourcePoint" />
            <mxPoint x="430" y="340" as="targetPoint" />
            <Array as="points">
              <mxPoint x="430" y="360" />
            </Array>
          </mxGeometry>
        </mxCell>
        <mxCell id="f-XQC71uX94ksuNOsDdL-30" value="" style="shape=flexArrow;endArrow=classic;html=1;rounded=0;width=2;endSize=3.07;exitX=0;exitY=0.5;exitDx=0;exitDy=0;endWidth=7;entryX=0.984;entryY=0.73;entryDx=0;entryDy=0;entryPerimeter=0;fontStyle=1" parent="1" source="f-XQC71uX94ksuNOsDdL-28" target="f-XQC71uX94ksuNOsDdL-4" edge="1">
          <mxGeometry width="50" height="50" relative="1" as="geometry">
            <mxPoint x="565.66" y="377" as="sourcePoint" />
            <mxPoint x="420" y="320" as="targetPoint" />
            <Array as="points" />
          </mxGeometry>
        </mxCell>
        <mxCell id="f-XQC71uX94ksuNOsDdL-33" value="Créer un compte" style="ellipse;whiteSpace=wrap;html=1;fontStyle=1" parent="1" vertex="1">
          <mxGeometry x="530" y="403" width="120" height="40" as="geometry" />
        </mxCell>
        <mxCell id="f-XQC71uX94ksuNOsDdL-34" value="" style="shape=flexArrow;endArrow=classic;html=1;rounded=0;width=2;endSize=5.14;endWidth=6;fontStyle=1;entryX=1;entryY=0;entryDx=0;entryDy=0;" parent="1" source="f-XQC71uX94ksuNOsDdL-33" target="f-XQC71uX94ksuNOsDdL-2" edge="1">
          <mxGeometry width="50" height="50" relative="1" as="geometry">
            <mxPoint x="500" y="523" as="sourcePoint" />
            <mxPoint x="330" y="430" as="targetPoint" />
            <Array as="points" />
          </mxGeometry>
        </mxCell>
        <mxCell id="f-XQC71uX94ksuNOsDdL-35" value="Supprimer un compte" style="ellipse;whiteSpace=wrap;html=1;fontStyle=1" parent="1" vertex="1">
          <mxGeometry x="530" y="450" width="120" height="40" as="geometry" />
        </mxCell>
        <mxCell id="f-XQC71uX94ksuNOsDdL-36" value="Modifierer un compte" style="ellipse;whiteSpace=wrap;html=1;fontStyle=1" parent="1" vertex="1">
          <mxGeometry x="530" y="500" width="120" height="40" as="geometry" />
        </mxCell>
        <mxCell id="f-XQC71uX94ksuNOsDdL-37" value="" style="shape=flexArrow;endArrow=classic;html=1;rounded=0;width=2;endSize=5.46;exitX=0;exitY=0.5;exitDx=0;exitDy=0;endWidth=7;fontStyle=1;entryX=1;entryY=0.5;entryDx=0;entryDy=0;" parent="1" source="f-XQC71uX94ksuNOsDdL-35" target="f-XQC71uX94ksuNOsDdL-2" edge="1">
          <mxGeometry width="50" height="50" relative="1" as="geometry">
            <mxPoint x="533" y="490" as="sourcePoint" />
            <mxPoint x="340" y="440" as="targetPoint" />
            <Array as="points" />
          </mxGeometry>
        </mxCell>
        <mxCell id="f-XQC71uX94ksuNOsDdL-38" value="" style="shape=flexArrow;endArrow=classic;html=1;rounded=0;entryX=0.932;entryY=0.735;entryDx=0;entryDy=0;width=2;endSize=3.07;exitX=0;exitY=0.5;exitDx=0;exitDy=0;endWidth=7;fontStyle=1;entryPerimeter=0;" parent="1" source="f-XQC71uX94ksuNOsDdL-36" target="f-XQC71uX94ksuNOsDdL-2" edge="1">
          <mxGeometry width="50" height="50" relative="1" as="geometry">
            <mxPoint x="543" y="500" as="sourcePoint" />
            <mxPoint x="437" y="479" as="targetPoint" />
            <Array as="points" />
          </mxGeometry>
        </mxCell>
        <mxCell id="f-XQC71uX94ksuNOsDdL-43" value="Créditer le solde Commerçant" style="ellipse;whiteSpace=wrap;html=1;fontStyle=1" parent="1" vertex="1">
          <mxGeometry x="540" y="170" width="120" height="40" as="geometry" />
        </mxCell>
        <mxCell id="f-XQC71uX94ksuNOsDdL-44" value="Débiter le solde Employé" style="ellipse;whiteSpace=wrap;html=1;fontStyle=1" parent="1" vertex="1">
          <mxGeometry x="535" y="120" width="120" height="40" as="geometry" />
        </mxCell>
        <mxCell id="f-XQC71uX94ksuNOsDdL-48" value="" style="endArrow=classic;html=1;rounded=0;entryX=0;entryY=0.5;entryDx=0;entryDy=0;exitX=0.003;exitY=0.832;exitDx=0;exitDy=0;exitPerimeter=0;fontStyle=1" parent="1" source="HrDyO8nvaBUC3kqXnFug-1" target="f-XQC71uX94ksuNOsDdL-2" edge="1">
          <mxGeometry width="50" height="50" relative="1" as="geometry">
            <mxPoint x="190" y="500" as="sourcePoint" />
            <mxPoint x="240" y="450" as="targetPoint" />
          </mxGeometry>
        </mxCell>
        <mxCell id="f-XQC71uX94ksuNOsDdL-50" value="" style="endArrow=classic;html=1;rounded=0;entryX=0;entryY=0.5;entryDx=0;entryDy=0;exitX=0.005;exitY=0.833;exitDx=0;exitDy=0;exitPerimeter=0;fontStyle=1" parent="1" source="HrDyO8nvaBUC3kqXnFug-1" target="f-XQC71uX94ksuNOsDdL-4" edge="1">
          <mxGeometry width="50" height="50" relative="1" as="geometry">
            <mxPoint x="142" y="472" as="sourcePoint" />
            <mxPoint x="300" y="473" as="targetPoint" />
            <Array as="points" />
          </mxGeometry>
        </mxCell>
        <mxCell id="f-XQC71uX94ksuNOsDdL-51" value="" style="endArrow=classic;html=1;rounded=0;entryX=0;entryY=0;entryDx=0;entryDy=0;exitX=0.003;exitY=0.117;exitDx=0;exitDy=0;exitPerimeter=0;fontStyle=1" parent="1" source="HrDyO8nvaBUC3kqXnFug-1" target="f-XQC71uX94ksuNOsDdL-7" edge="1">
          <mxGeometry width="50" height="50" relative="1" as="geometry">
            <mxPoint x="132" y="89.5" as="sourcePoint" />
            <mxPoint x="290" y="90.5" as="targetPoint" />
          </mxGeometry>
        </mxCell>
        <mxCell id="f-XQC71uX94ksuNOsDdL-53" value="&lt;div&gt;Modifier le mot&lt;/div&gt;&lt;div&gt;&amp;nbsp;de passe&lt;/div&gt;" style="ellipse;whiteSpace=wrap;html=1;fontStyle=1" parent="1" vertex="1">
          <mxGeometry x="220" y="315" width="120" height="35" as="geometry" />
        </mxCell>
        <mxCell id="f-XQC71uX94ksuNOsDdL-54" value="" style="endArrow=classic;html=1;rounded=0;exitX=0.008;exitY=0.118;exitDx=0;exitDy=0;exitPerimeter=0;entryX=0.093;entryY=0.285;entryDx=0;entryDy=0;entryPerimeter=0;fontStyle=1" parent="1" source="HrDyO8nvaBUC3kqXnFug-1" target="f-XQC71uX94ksuNOsDdL-1" edge="1">
          <mxGeometry width="50" height="50" relative="1" as="geometry">
            <mxPoint x="122" y="96" as="sourcePoint" />
            <mxPoint x="300" y="190" as="targetPoint" />
          </mxGeometry>
        </mxCell>
        <mxCell id="f-XQC71uX94ksuNOsDdL-55" value="" style="endArrow=classic;html=1;rounded=0;exitX=0;exitY=0.359;exitDx=0;exitDy=0;exitPerimeter=0;fontStyle=1;entryX=0.09;entryY=0.735;entryDx=0;entryDy=0;entryPerimeter=0;" parent="1" source="HrDyO8nvaBUC3kqXnFug-1" target="f-XQC71uX94ksuNOsDdL-1" edge="1">
          <mxGeometry width="50" height="50" relative="1" as="geometry">
            <mxPoint x="120" y="195.5" as="sourcePoint" />
            <mxPoint x="300" y="140" as="targetPoint" />
          </mxGeometry>
        </mxCell>
        <mxCell id="f-XQC71uX94ksuNOsDdL-56" value="" style="endArrow=classic;html=1;rounded=0;entryX=0;entryY=0.5;entryDx=0;entryDy=0;fontStyle=1;exitX=0.002;exitY=0.359;exitDx=0;exitDy=0;exitPerimeter=0;" parent="1" source="HrDyO8nvaBUC3kqXnFug-1" target="f-XQC71uX94ksuNOsDdL-7" edge="1">
          <mxGeometry width="50" height="50" relative="1" as="geometry">
            <mxPoint x="120" y="200" as="sourcePoint" />
            <mxPoint x="310" y="110.5" as="targetPoint" />
          </mxGeometry>
        </mxCell>
        <mxCell id="f-XQC71uX94ksuNOsDdL-57" value="&lt;div&gt;&lt;span&gt;&lt;font&gt;Système de gestion carte restaurant Aventix&lt;/font&gt;&lt;/span&gt;&lt;/div&gt;" style="text;html=1;align=center;verticalAlign=middle;whiteSpace=wrap;rounded=0;fillColor=#ffff88;strokeWidth=1;perimeterSpacing=10;strokeColor=#36393d;fontStyle=1;fontSize=16;" parent="1" vertex="1">
          <mxGeometry x="231.25" y="20" width="377.5" height="30" as="geometry" />
        </mxCell>
        <mxCell id="f-XQC71uX94ksuNOsDdL-60" value="" style="endArrow=none;dashed=1;html=1;dashPattern=1 3;strokeWidth=2;rounded=0;exitX=0;exitY=0.5;exitDx=0;exitDy=0;entryX=1;entryY=0;entryDx=0;entryDy=0;fontStyle=1;" parent="1" source="f-XQC71uX94ksuNOsDdL-3" target="f-XQC71uX94ksuNOsDdL-53" edge="1">
          <mxGeometry width="50" height="50" relative="1" as="geometry">
            <mxPoint x="193.28669998952944" y="275.00343332876923" as="sourcePoint" />
            <mxPoint x="310.63" y="375.23" as="targetPoint" />
            <Array as="points">
              <mxPoint x="380" y="290" />
            </Array>
          </mxGeometry>
        </mxCell>
        <mxCell id="hkSApEl5P2nhrFZefOpm-13" value="&lt;font style=&quot;font-size: 8px;&quot;&gt;Include&lt;/font&gt;" style="edgeLabel;html=1;align=center;verticalAlign=middle;resizable=0;points=[];" parent="f-XQC71uX94ksuNOsDdL-60" vertex="1" connectable="0">
          <mxGeometry x="0.0047" relative="1" as="geometry">
            <mxPoint y="1" as="offset" />
          </mxGeometry>
        </mxCell>
        <mxCell id="f-XQC71uX94ksuNOsDdL-63" value="" style="endArrow=classic;html=1;rounded=0;fontStyle=1;entryX=0.045;entryY=0.25;entryDx=0;entryDy=0;exitX=0.007;exitY=0.612;exitDx=0;exitDy=0;exitPerimeter=0;entryPerimeter=0;" parent="1" source="HrDyO8nvaBUC3kqXnFug-1" target="f-XQC71uX94ksuNOsDdL-4" edge="1">
          <mxGeometry width="50" height="50" relative="1" as="geometry">
            <mxPoint x="111" y="330" as="sourcePoint" />
            <mxPoint x="300" y="319.5" as="targetPoint" />
          </mxGeometry>
        </mxCell>
        <mxCell id="f-XQC71uX94ksuNOsDdL-64" value="" style="endArrow=classic;html=1;rounded=0;fontStyle=1;entryX=0.045;entryY=0.255;entryDx=0;entryDy=0;entryPerimeter=0;exitX=0.001;exitY=0.617;exitDx=0;exitDy=0;exitPerimeter=0;" parent="1" source="HrDyO8nvaBUC3kqXnFug-1" target="f-XQC71uX94ksuNOsDdL-2" edge="1">
          <mxGeometry width="50" height="50" relative="1" as="geometry">
            <mxPoint x="110" y="330" as="sourcePoint" />
            <mxPoint x="300" y="440" as="targetPoint" />
          </mxGeometry>
        </mxCell>
        <mxCell id="f-XQC71uX94ksuNOsDdL-65" value="Contacter le support " style="ellipse;whiteSpace=wrap;html=1;fontStyle=1" parent="1" vertex="1">
          <mxGeometry x="216.25" y="210" width="130.62" height="40" as="geometry" />
        </mxCell>
        <mxCell id="f-XQC71uX94ksuNOsDdL-66" value="Superviser l&#39;application " style="ellipse;whiteSpace=wrap;html=1;fontStyle=1" parent="1" vertex="1">
          <mxGeometry x="209.38" y="463" width="157.5" height="40" as="geometry" />
        </mxCell>
        <mxCell id="f-XQC71uX94ksuNOsDdL-73" value="Include" style="endArrow=none;dashed=1;html=1;rounded=0;exitX=0;exitY=0.5;exitDx=0;exitDy=0;fontStyle=0;entryX=0.938;entryY=0.3;entryDx=0;entryDy=0;fontSize=8;entryPerimeter=0;" parent="1" source="f-XQC71uX94ksuNOsDdL-3" target="f-XQC71uX94ksuNOsDdL-71" edge="1">
          <mxGeometry x="-0.1432" y="-3" width="50" height="50" relative="1" as="geometry">
            <mxPoint x="259" y="263" as="sourcePoint" />
            <mxPoint x="328" y="251" as="targetPoint" />
            <mxPoint as="offset" />
          </mxGeometry>
        </mxCell>
        <mxCell id="f-XQC71uX94ksuNOsDdL-74" value="" style="endArrow=classic;html=1;rounded=0;entryX=0;entryY=0.5;entryDx=0;entryDy=0;exitX=-0.004;exitY=0.837;exitDx=0;exitDy=0;exitPerimeter=0;fontStyle=1" parent="1" source="HrDyO8nvaBUC3kqXnFug-1" target="f-XQC71uX94ksuNOsDdL-66" edge="1">
          <mxGeometry width="50" height="50" relative="1" as="geometry">
            <mxPoint x="122" y="469" as="sourcePoint" />
            <mxPoint x="320" y="473" as="targetPoint" />
          </mxGeometry>
        </mxCell>
        <mxCell id="f-XQC71uX94ksuNOsDdL-75" value="" style="endArrow=none;dashed=1;html=1;dashPattern=1 3;strokeWidth=2;rounded=0;entryX=1;entryY=0.5;entryDx=0;entryDy=0;fontStyle=1;" parent="1" target="f-XQC71uX94ksuNOsDdL-79" edge="1">
          <mxGeometry width="50" height="50" relative="1" as="geometry">
            <mxPoint x="470" y="260" as="sourcePoint" />
            <mxPoint x="308.75" y="465" as="targetPoint" />
            <Array as="points">
              <mxPoint x="400" y="460" />
            </Array>
          </mxGeometry>
        </mxCell>
        <mxCell id="hkSApEl5P2nhrFZefOpm-7" value="Include" style="edgeLabel;html=1;align=center;verticalAlign=middle;resizable=0;points=[];fontSize=8;" parent="f-XQC71uX94ksuNOsDdL-75" vertex="1" connectable="0">
          <mxGeometry x="-0.0292" y="2" relative="1" as="geometry">
            <mxPoint x="-45" y="107" as="offset" />
          </mxGeometry>
        </mxCell>
        <mxCell id="f-XQC71uX94ksuNOsDdL-78" value="" style="endArrow=classic;html=1;rounded=0;exitX=0.006;exitY=0.363;exitDx=0;exitDy=0;exitPerimeter=0;entryX=0;entryY=0.5;entryDx=0;entryDy=0;fontStyle=1" parent="1" edge="1">
          <mxGeometry width="50" height="50" relative="1" as="geometry">
            <mxPoint x="103.83999999999992" y="211.27999999999997" as="sourcePoint" />
            <mxPoint x="216.24999999999704" y="228" as="targetPoint" />
          </mxGeometry>
        </mxCell>
        <mxCell id="f-XQC71uX94ksuNOsDdL-79" value="Traiter les reclamations&amp;nbsp; du support" style="ellipse;whiteSpace=wrap;html=1;fontStyle=1" parent="1" vertex="1">
          <mxGeometry x="216.25" y="515" width="152.5" height="45" as="geometry" />
        </mxCell>
        <mxCell id="f-XQC71uX94ksuNOsDdL-82" value="" style="endArrow=classic;html=1;rounded=0;entryX=0;entryY=0.5;entryDx=0;entryDy=0;fontStyle=1" parent="1" edge="1">
          <mxGeometry width="50" height="50" relative="1" as="geometry">
            <mxPoint x="100" y="478" as="sourcePoint" />
            <mxPoint x="216.25" y="545.5" as="targetPoint" />
          </mxGeometry>
        </mxCell>
        <mxCell id="f-XQC71uX94ksuNOsDdL-86" value="" style="endArrow=classic;html=1;rounded=0;entryX=0.079;entryY=0.295;entryDx=0;entryDy=0;fontStyle=1;entryPerimeter=0;exitX=0.002;exitY=0.12;exitDx=0;exitDy=0;exitPerimeter=0;" parent="1" source="HrDyO8nvaBUC3kqXnFug-1" target="f-XQC71uX94ksuNOsDdL-71" edge="1">
          <mxGeometry width="50" height="50" relative="1" as="geometry">
            <mxPoint x="110" y="70" as="sourcePoint" />
            <mxPoint x="327.5" y="252.5" as="targetPoint" />
          </mxGeometry>
        </mxCell>
        <mxCell id="f-XQC71uX94ksuNOsDdL-87" value="" style="endArrow=classic;html=1;rounded=0;exitX=0.006;exitY=0.363;exitDx=0;exitDy=0;exitPerimeter=0;entryX=0;entryY=0.5;entryDx=0;entryDy=0;fontStyle=1;" parent="1" source="HrDyO8nvaBUC3kqXnFug-1" target="f-XQC71uX94ksuNOsDdL-71" edge="1">
          <mxGeometry width="50" height="50" relative="1" as="geometry">
            <mxPoint x="129" y="94" as="sourcePoint" />
            <mxPoint x="334" y="171" as="targetPoint" />
          </mxGeometry>
        </mxCell>
        <mxCell id="f-XQC71uX94ksuNOsDdL-88" value="" style="endArrow=classic;html=1;rounded=0;exitX=0.003;exitY=0.613;exitDx=0;exitDy=0;exitPerimeter=0;entryX=0.025;entryY=0.725;entryDx=0;entryDy=0;fontStyle=1;entryPerimeter=0;" parent="1" source="HrDyO8nvaBUC3kqXnFug-1" target="f-XQC71uX94ksuNOsDdL-71" edge="1">
          <mxGeometry width="50" height="50" relative="1" as="geometry">
            <mxPoint x="139" y="104" as="sourcePoint" />
            <mxPoint x="344" y="181" as="targetPoint" />
          </mxGeometry>
        </mxCell>
        <mxCell id="f-XQC71uX94ksuNOsDdL-89" value="ID Provider" style="shape=umlActor;verticalLabelPosition=bottom;verticalAlign=top;html=1;outlineConnect=0;fillColor=#F9F7ED;strokeColor=#36393d;fontStyle=1;strokeWidth=1;gradientColor=default;" parent="1" vertex="1">
          <mxGeometry x="767" y="403" width="30" height="60" as="geometry" />
        </mxCell>
        <mxCell id="f-XQC71uX94ksuNOsDdL-90" value="" style="endArrow=classic;html=1;rounded=0;entryX=0;entryY=0.3333333333333333;entryDx=0;entryDy=0;fontStyle=1;entryPerimeter=0;exitX=1;exitY=0.5;exitDx=0;exitDy=0;" parent="1" source="f-XQC71uX94ksuNOsDdL-44" target="f-XQC71uX94ksuNOsDdL-19" edge="1">
          <mxGeometry width="50" height="50" relative="1" as="geometry">
            <mxPoint x="116" y="83" as="sourcePoint" />
            <mxPoint x="328" y="86" as="targetPoint" />
          </mxGeometry>
        </mxCell>
        <mxCell id="f-XQC71uX94ksuNOsDdL-92" value="&lt;div&gt;&lt;font style=&quot;font-size: 10px;&quot;&gt;Vérifier&amp;nbsp;&lt;/font&gt;&lt;/div&gt;&lt;div&gt;&lt;font style=&quot;font-size: 10px;&quot;&gt;et valider&lt;/font&gt;&lt;/div&gt;" style="edgeLabel;html=1;align=center;verticalAlign=middle;resizable=0;points=[];" parent="f-XQC71uX94ksuNOsDdL-90" vertex="1" connectable="0">
          <mxGeometry x="-0.118" y="-3" relative="1" as="geometry">
            <mxPoint x="-8" as="offset" />
          </mxGeometry>
        </mxCell>
        <mxCell id="f-XQC71uX94ksuNOsDdL-91" value="" style="endArrow=classic;html=1;rounded=0;entryX=0;entryY=0.3333333333333333;entryDx=0;entryDy=0;fontStyle=1;entryPerimeter=0;exitX=1;exitY=0.5;exitDx=0;exitDy=0;" parent="1" source="f-XQC71uX94ksuNOsDdL-43" edge="1">
          <mxGeometry width="50" height="50" relative="1" as="geometry">
            <mxPoint x="665" y="160" as="sourcePoint" />
            <mxPoint x="780" y="100" as="targetPoint" />
          </mxGeometry>
        </mxCell>
        <mxCell id="f-XQC71uX94ksuNOsDdL-94" value="&lt;div&gt;&lt;font style=&quot;font-size: 10px;&quot;&gt;Vérifier&amp;nbsp;&lt;/font&gt;&lt;/div&gt;&lt;div&gt;&lt;font style=&quot;font-size: 10px;&quot;&gt;et valider&lt;/font&gt;&lt;/div&gt;" style="edgeLabel;html=1;align=center;verticalAlign=middle;resizable=0;points=[];" parent="f-XQC71uX94ksuNOsDdL-91" vertex="1" connectable="0">
          <mxGeometry x="-0.3683" y="2" relative="1" as="geometry">
            <mxPoint as="offset" />
          </mxGeometry>
        </mxCell>
        <mxCell id="f-XQC71uX94ksuNOsDdL-95" value="Aventix" style="shape=umlActor;verticalLabelPosition=bottom;verticalAlign=top;html=1;outlineConnect=0;fillColor=#F9F7ED;strokeColor=#36393d;fontStyle=1;strokeWidth=1;gradientColor=default;" parent="1" vertex="1">
          <mxGeometry x="760" y="250" width="30" height="60" as="geometry" />
        </mxCell>
        <mxCell id="f-XQC71uX94ksuNOsDdL-97" value="" style="endArrow=classic;html=1;rounded=0;entryX=0;entryY=0.3333333333333333;entryDx=0;entryDy=0;fontStyle=1;entryPerimeter=0;exitX=1;exitY=0.5;exitDx=0;exitDy=0;" parent="1" source="f-XQC71uX94ksuNOsDdL-25" target="f-XQC71uX94ksuNOsDdL-95" edge="1">
          <mxGeometry width="50" height="50" relative="1" as="geometry">
            <mxPoint x="660" y="220" as="sourcePoint" />
            <mxPoint x="790" y="110" as="targetPoint" />
            <Array as="points" />
          </mxGeometry>
        </mxCell>
        <mxCell id="f-XQC71uX94ksuNOsDdL-99" value="" style="endArrow=classic;html=1;rounded=0;fontStyle=1;exitX=1;exitY=0.5;exitDx=0;exitDy=0;" parent="1" source="f-XQC71uX94ksuNOsDdL-28" edge="1">
          <mxGeometry width="50" height="50" relative="1" as="geometry">
            <mxPoint x="660" y="280" as="sourcePoint" />
            <mxPoint x="760" y="310" as="targetPoint" />
          </mxGeometry>
        </mxCell>
        <mxCell id="f-XQC71uX94ksuNOsDdL-100" value="" style="endArrow=classic;html=1;rounded=0;fontStyle=1;exitX=1;exitY=0.5;exitDx=0;exitDy=0;" parent="1" source="f-XQC71uX94ksuNOsDdL-27" edge="1">
          <mxGeometry width="50" height="50" relative="1" as="geometry">
            <mxPoint x="670" y="290" as="sourcePoint" />
            <mxPoint x="760" y="290" as="targetPoint" />
          </mxGeometry>
        </mxCell>
        <mxCell id="f-XQC71uX94ksuNOsDdL-108" value="" style="endArrow=none;dashed=1;html=1;rounded=0;exitX=1;exitY=0.5;exitDx=0;exitDy=0;fontStyle=1;entryX=0;entryY=0.5;entryDx=0;entryDy=0;" parent="1" source="f-XQC71uX94ksuNOsDdL-1" target="f-XQC71uX94ksuNOsDdL-44" edge="1">
          <mxGeometry width="50" height="50" relative="1" as="geometry">
            <mxPoint x="445" y="127" as="sourcePoint" />
            <mxPoint x="535" y="130" as="targetPoint" />
          </mxGeometry>
        </mxCell>
        <mxCell id="f-XQC71uX94ksuNOsDdL-109" value="Extend" style="edgeLabel;html=1;align=center;verticalAlign=middle;resizable=0;points=[];fontStyle=1" parent="f-XQC71uX94ksuNOsDdL-108" vertex="1" connectable="0">
          <mxGeometry x="0.0028" relative="1" as="geometry">
            <mxPoint x="17" as="offset" />
          </mxGeometry>
        </mxCell>
        <mxCell id="f-XQC71uX94ksuNOsDdL-112" value="" style="endArrow=none;dashed=1;html=1;rounded=0;exitX=1;exitY=0.5;exitDx=0;exitDy=0;fontStyle=1;" parent="1" edge="1">
          <mxGeometry width="50" height="50" relative="1" as="geometry">
            <mxPoint x="344" y="187" as="sourcePoint" />
            <mxPoint x="544.0996034994607" y="190.84806929806655" as="targetPoint" />
          </mxGeometry>
        </mxCell>
        <mxCell id="f-XQC71uX94ksuNOsDdL-113" value="Extend" style="edgeLabel;html=1;align=center;verticalAlign=middle;resizable=0;points=[];fontStyle=1" parent="f-XQC71uX94ksuNOsDdL-112" vertex="1" connectable="0">
          <mxGeometry x="0.0028" relative="1" as="geometry">
            <mxPoint x="25" as="offset" />
          </mxGeometry>
        </mxCell>
        <mxCell id="f-XQC71uX94ksuNOsDdL-118" value="" style="endArrow=classic;html=1;rounded=0;fontStyle=1;entryX=0;entryY=0.5;entryDx=0;entryDy=0;" parent="1" target="f-XQC71uX94ksuNOsDdL-53" edge="1">
          <mxGeometry width="50" height="50" relative="1" as="geometry">
            <mxPoint x="100" y="210" as="sourcePoint" />
            <mxPoint x="356" y="86" as="targetPoint" />
          </mxGeometry>
        </mxCell>
        <mxCell id="f-XQC71uX94ksuNOsDdL-119" value="" style="endArrow=classic;html=1;rounded=0;fontStyle=1;exitX=0;exitY=0.625;exitDx=0;exitDy=0;exitPerimeter=0;" parent="1" edge="1">
          <mxGeometry width="50" height="50" relative="1" as="geometry">
            <mxPoint x="100" y="354" as="sourcePoint" />
            <mxPoint x="220" y="335" as="targetPoint" />
          </mxGeometry>
        </mxCell>
        <mxCell id="f-XQC71uX94ksuNOsDdL-120" value="" style="endArrow=classic;html=1;rounded=0;fontStyle=1;entryX=0.038;entryY=0.811;entryDx=0;entryDy=0;entryPerimeter=0;" parent="1" target="f-XQC71uX94ksuNOsDdL-53" edge="1">
          <mxGeometry width="50" height="50" relative="1" as="geometry">
            <mxPoint x="100" y="480" as="sourcePoint" />
            <mxPoint x="330" y="330" as="targetPoint" />
          </mxGeometry>
        </mxCell>
        <mxCell id="f-XQC71uX94ksuNOsDdL-123" value="" style="endArrow=classic;html=1;rounded=0;entryX=0;entryY=0.3333333333333333;entryDx=0;entryDy=0;fontStyle=1;entryPerimeter=0;" parent="1" source="f-XQC71uX94ksuNOsDdL-33" target="f-XQC71uX94ksuNOsDdL-89" edge="1">
          <mxGeometry width="50" height="50" relative="1" as="geometry">
            <mxPoint x="660" y="280" as="sourcePoint" />
            <mxPoint x="770" y="280" as="targetPoint" />
            <Array as="points" />
          </mxGeometry>
        </mxCell>
        <mxCell id="f-XQC71uX94ksuNOsDdL-124" value="" style="endArrow=classic;html=1;rounded=0;fontStyle=1;exitX=1;exitY=0.5;exitDx=0;exitDy=0;" parent="1" target="f-XQC71uX94ksuNOsDdL-89" edge="1">
          <mxGeometry width="50" height="50" relative="1" as="geometry">
            <mxPoint x="650" y="469.5" as="sourcePoint" />
            <mxPoint x="760" y="469.5" as="targetPoint" />
            <Array as="points" />
          </mxGeometry>
        </mxCell>
        <mxCell id="f-XQC71uX94ksuNOsDdL-125" value="" style="endArrow=classic;html=1;rounded=0;fontStyle=1;exitX=1;exitY=0.5;exitDx=0;exitDy=0;" parent="1" source="f-XQC71uX94ksuNOsDdL-36" target="f-XQC71uX94ksuNOsDdL-89" edge="1">
          <mxGeometry width="50" height="50" relative="1" as="geometry">
            <mxPoint x="680" y="300" as="sourcePoint" />
            <mxPoint x="790" y="300" as="targetPoint" />
            <Array as="points" />
          </mxGeometry>
        </mxCell>
        <mxCell id="f-XQC71uX94ksuNOsDdL-126" value="" style="endArrow=classic;html=1;rounded=0;fontStyle=1;entryX=0;entryY=0.5;entryDx=0;entryDy=0;" parent="1" target="f-XQC71uX94ksuNOsDdL-106" edge="1">
          <mxGeometry width="50" height="50" relative="1" as="geometry">
            <mxPoint x="100" y="210" as="sourcePoint" />
            <mxPoint x="336" y="149" as="targetPoint" />
          </mxGeometry>
        </mxCell>
        <mxCell id="f-XQC71uX94ksuNOsDdL-4" value="&lt;span&gt;Gérer les cartes&lt;/span&gt;" style="ellipse;whiteSpace=wrap;html=1;fontStyle=1" parent="1" vertex="1">
          <mxGeometry x="216.25" y="363" width="131.25" height="40" as="geometry" />
        </mxCell>
        <mxCell id="f-XQC71uX94ksuNOsDdL-71" value="Consulter la liste de partenaires" style="ellipse;whiteSpace=wrap;html=1;fontStyle=1" parent="1" vertex="1">
          <mxGeometry x="226.25" y="260" width="127.5" height="40" as="geometry" />
        </mxCell>
        <mxCell id="hkSApEl5P2nhrFZefOpm-4" value="" style="endArrow=none;dashed=1;html=1;dashPattern=1 3;strokeWidth=2;rounded=0;entryX=1;entryY=0.5;entryDx=0;entryDy=0;fontStyle=1;exitX=0;exitY=1;exitDx=0;exitDy=0;" parent="1" edge="1">
          <mxGeometry width="50" height="50" relative="1" as="geometry">
            <mxPoint x="439.15330001047056" y="260.00343332876923" as="sourcePoint" />
            <mxPoint x="351.56" y="438.23" as="targetPoint" />
          </mxGeometry>
        </mxCell>
        <mxCell id="hkSApEl5P2nhrFZefOpm-5" value="Include" style="edgeLabel;html=1;align=center;verticalAlign=middle;resizable=0;points=[];fontStyle=0;fontSize=8;" parent="hkSApEl5P2nhrFZefOpm-4" vertex="1" connectable="0">
          <mxGeometry x="-0.0132" y="6" relative="1" as="geometry">
            <mxPoint x="5" y="-32" as="offset" />
          </mxGeometry>
        </mxCell>
        <mxCell id="f-XQC71uX94ksuNOsDdL-2" value="&lt;span&gt;Gérer le compte&lt;/span&gt;" style="ellipse;whiteSpace=wrap;html=1;fontStyle=1" parent="1" vertex="1">
          <mxGeometry x="216.25" y="413" width="137.5" height="40" as="geometry" />
        </mxCell>
        <mxCell id="hkSApEl5P2nhrFZefOpm-6" value="" style="endArrow=classic;html=1;rounded=0;entryX=0;entryY=0.5;entryDx=0;entryDy=0;fontStyle=1" parent="1" edge="1">
          <mxGeometry width="50" height="50" relative="1" as="geometry">
            <mxPoint x="100" y="72" as="sourcePoint" />
            <mxPoint x="205.6199999999999" y="178" as="targetPoint" />
          </mxGeometry>
        </mxCell>
        <mxCell id="f-XQC71uX94ksuNOsDdL-106" value="&lt;div&gt;&lt;span&gt;Recevoir un&amp;nbsp;&lt;/span&gt;&lt;/div&gt;&lt;div&gt;&lt;span&gt;paiement &lt;/span&gt;&lt;/div&gt;" style="ellipse;whiteSpace=wrap;html=1;fontStyle=1" parent="1" vertex="1">
          <mxGeometry x="205.62" y="160" width="140" height="40" as="geometry" />
        </mxCell>
        <mxCell id="hkSApEl5P2nhrFZefOpm-8" value="Include" style="endArrow=none;dashed=1;html=1;rounded=0;exitX=0;exitY=0;exitDx=0;exitDy=0;fontStyle=0;entryX=1;entryY=0.5;entryDx=0;entryDy=0;fontSize=8;" parent="1" source="f-XQC71uX94ksuNOsDdL-3" target="f-XQC71uX94ksuNOsDdL-65" edge="1">
          <mxGeometry x="-0.1432" y="-3" width="50" height="50" relative="1" as="geometry">
            <mxPoint x="424" y="253" as="sourcePoint" />
            <mxPoint x="346" y="282" as="targetPoint" />
            <mxPoint as="offset" />
          </mxGeometry>
        </mxCell>
        <mxCell id="hkSApEl5P2nhrFZefOpm-9" value="" style="endArrow=classic;html=1;rounded=0;exitX=0.924;exitY=0.389;exitDx=0;exitDy=0;exitPerimeter=0;entryX=0.25;entryY=0.1;entryDx=0;entryDy=0;entryPerimeter=0;" parent="1" source="f-XQC71uX94ksuNOsDdL-3" target="f-XQC71uX94ksuNOsDdL-89" edge="1">
          <mxGeometry width="50" height="50" relative="1" as="geometry">
            <mxPoint x="390" y="320" as="sourcePoint" />
            <mxPoint x="760" y="409" as="targetPoint" />
            <Array as="points">
              <mxPoint x="690" y="239" />
              <mxPoint x="690" y="410" />
            </Array>
          </mxGeometry>
        </mxCell>
        <mxCell id="hkSApEl5P2nhrFZefOpm-10" value="" style="endArrow=none;dashed=1;html=1;dashPattern=1 3;strokeWidth=2;rounded=0;entryX=1;entryY=0.5;entryDx=0;entryDy=0;fontStyle=1;exitX=0.327;exitY=0.966;exitDx=0;exitDy=0;exitPerimeter=0;" parent="1" source="f-XQC71uX94ksuNOsDdL-3" target="f-XQC71uX94ksuNOsDdL-66" edge="1">
          <mxGeometry width="50" height="50" relative="1" as="geometry">
            <mxPoint x="480" y="270" as="sourcePoint" />
            <mxPoint x="364" y="443" as="targetPoint" />
          </mxGeometry>
        </mxCell>
        <mxCell id="hkSApEl5P2nhrFZefOpm-11" value="Include" style="edgeLabel;html=1;align=center;verticalAlign=middle;resizable=0;points=[];fontStyle=0;fontSize=8;" parent="hkSApEl5P2nhrFZefOpm-10" vertex="1" connectable="0">
          <mxGeometry x="-0.0132" y="6" relative="1" as="geometry">
            <mxPoint x="9" y="-32" as="offset" />
          </mxGeometry>
        </mxCell>
        <mxCell id="hkSApEl5P2nhrFZefOpm-16" value="" style="endArrow=classic;html=1;rounded=0;entryX=0.055;entryY=0.246;entryDx=0;entryDy=0;fontStyle=1;entryPerimeter=0;" parent="1" edge="1">
          <mxGeometry width="50" height="50" relative="1" as="geometry">
            <mxPoint x="102" y="80" as="sourcePoint" />
            <mxPoint x="228.5999999999999" y="323.61" as="targetPoint" />
          </mxGeometry>
        </mxCell>
      </root>
    </mxGraphModel>
  </diagram>
</mxfile>
